<?xml version="1.0" encoding="UTF-8" standalone="no"?>
<!DOCTYPE svg PUBLIC "-//W3C//DTD SVG 1.1//EN" "http://www.w3.org/Graphics/SVG/1.1/DTD/svg11.dtd">
<svg width="100%" height="100%" viewBox="0 0 20 20" version="1.1" xmlns="http://www.w3.org/2000/svg" xmlns:xlink="http://www.w3.org/1999/xlink" xml:space="preserve" xmlns:serif="http://www.serif.com/" style="fill-rule:evenodd;clip-rule:evenodd;stroke-linecap:round;stroke-linejoin:round;stroke-miterlimit:1.5;">
    <path d="M0.003,19.947L9.993,-0.041L19.887,19.97L0.003,19.947Z" style="fill:rgb(235,235,235);stroke:rgb(235,235,235);stroke-width:0.05px;"/>
    <path d="M13.665,19.706L13.752,19.709L13.838,19.713L13.923,19.718L14.007,19.724L14.091,19.731L14.256,19.746L14.419,19.761L14.579,19.776L14.658,19.782L14.736,19.787L14.813,19.791L14.89,19.794L14.957,19.795L15.025,19.795L15.093,19.794L15.161,19.792L15.301,19.785L15.443,19.777L15.588,19.767L15.734,19.758L15.81,19.755L15.885,19.752L15.961,19.75L16.036,19.75L16.052,19.75L16.068,19.751L16.084,19.753L16.1,19.757L16.116,19.761L16.132,19.766L16.147,19.772L16.162,19.779L16.176,19.787L16.19,19.795L16.203,19.804L16.216,19.815L16.228,19.826L16.239,19.837L16.25,19.849L16.26,19.862L16.269,19.876L16.278,19.89L16.285,19.904L16.292,19.919L16.298,19.934L16.303,19.95L16.307,19.966L16.31,19.982L16.312,19.998L16.313,20.014L16.313,20.03L16.312,20.047L16.311,20.063L16.308,20.079L16.304,20.095L16.299,20.11L16.294,20.126L16.287,20.141L16.28,20.155L16.272,20.169L16.263,20.183L16.253,20.196L16.243,20.208L16.231,20.22L16.219,20.231L16.207,20.242L16.194,20.251L16.18,20.26L16.166,20.268L16.151,20.275L16.136,20.281L16.121,20.287L16.105,20.291L16.089,20.295L16.073,20.297L16.057,20.299L16.041,20.299L15.97,20.3L15.902,20.302L15.833,20.304L15.764,20.308L15.622,20.316L15.478,20.325L15.331,20.334L15.182,20.342L15.106,20.344L15.029,20.345L14.952,20.345L14.874,20.344L14.788,20.341L14.703,20.336L14.618,20.33L14.534,20.324L14.368,20.309L14.205,20.294L14.044,20.279L13.965,20.272L13.886,20.267L13.808,20.262L13.731,20.258L13.654,20.256L13.575,20.255L13.559,20.254L13.543,20.253L13.526,20.25L13.511,20.247L13.495,20.242L13.48,20.237L13.464,20.231L13.45,20.223L13.436,20.215L13.422,20.207L13.409,20.197L13.396,20.186L13.384,20.175L13.373,20.164L13.363,20.151L13.353,20.138L13.344,20.124L13.336,20.11L13.328,20.096L13.322,20.081L13.317,20.065L13.312,20.05L13.308,20.034L13.306,20.018L13.304,20.002L13.303,19.985L13.303,19.969L13.304,19.953L13.306,19.937L13.309,19.921L13.313,19.905L13.318,19.889L13.324,19.874L13.331,19.859L13.339,19.845L13.347,19.831L13.356,19.817L13.366,19.805L13.377,19.792L13.388,19.781L13.401,19.77L13.413,19.76L13.427,19.75L13.441,19.742L13.455,19.734L13.47,19.727L13.485,19.721L13.5,19.716L13.516,19.712L13.532,19.709L13.548,19.707L13.565,19.705L13.581,19.705L13.665,19.706Z" style="fill:rgb(235,235,235);"/>
    <path d="M17.916,19.362L17.975,19.367L18.034,19.374L18.086,19.383L18.112,19.389L18.118,19.391L18.149,19.401L18.179,19.415L18.206,19.433L18.209,19.435L18.243,19.464L18.272,19.498L18.275,19.498L18.302,19.488L18.351,19.471L18.398,19.457L18.443,19.444L18.487,19.432L18.559,19.415L18.607,19.405L18.645,19.4L18.674,19.399L18.708,19.399L18.725,19.4L18.766,19.405L18.773,19.407L18.812,19.418L18.819,19.421L18.844,19.432L18.869,19.445L18.874,19.449L18.88,19.453L18.925,19.456L18.981,19.462L19.035,19.471L19.081,19.481L19.112,19.475L19.156,19.469L19.201,19.465L19.247,19.464L19.295,19.467L19.332,19.472L19.356,19.476L19.381,19.482L19.408,19.489L19.431,19.497L19.458,19.508L19.463,19.51L19.496,19.528L19.5,19.531L19.525,19.548L19.547,19.568L19.549,19.57L19.579,19.606L19.603,19.646L19.605,19.649L19.613,19.671L19.643,19.685L19.7,19.714L19.733,19.732L19.765,19.752L19.799,19.775L19.824,19.794L19.848,19.816L19.86,19.829L19.886,19.859L19.891,19.865L19.912,19.898L19.915,19.904L19.927,19.929L19.936,19.955L19.938,19.961L19.946,19.998L19.949,20.035L19.949,20.041L19.946,20.086L19.936,20.13L19.934,20.135L19.917,20.177L19.893,20.215L19.889,20.219L19.866,20.246L19.839,20.27L19.81,20.29L19.807,20.292L19.767,20.312L19.725,20.325L19.721,20.326L19.69,20.331L19.658,20.332L19.645,20.332L19.607,20.329L19.579,20.325L19.542,20.316L19.507,20.307L19.471,20.297L19.402,20.275L19.279,20.233L19.241,20.22L19.23,20.239L19.22,20.252L19.197,20.279L19.185,20.292L19.164,20.311L19.142,20.33L19.111,20.353L19.081,20.371L19.053,20.386L19.026,20.4L18.985,20.418L18.954,20.431L18.936,20.439L18.871,20.468L18.825,20.487L18.775,20.507L18.72,20.528L18.662,20.548L18.601,20.567L18.537,20.585L18.471,20.6L18.405,20.613L18.369,20.618L18.334,20.622L18.298,20.625L18.261,20.626L18.223,20.625L18.183,20.621L18.142,20.615L18.112,20.608L18.087,20.601L18.069,20.595L18.04,20.583L18.024,20.576L17.993,20.559L17.978,20.549L17.947,20.526L17.934,20.515L17.906,20.487L17.903,20.483L17.878,20.45L17.875,20.446L17.863,20.425L17.853,20.403L17.851,20.399L17.844,20.377L17.795,20.375L17.74,20.369L17.684,20.359L17.631,20.345L17.6,20.335L17.571,20.323L17.543,20.311L17.515,20.296L17.486,20.279L17.474,20.27L17.421,20.272L17.024,20.289L16.627,20.305L16.428,20.312L16.417,20.312L16.342,20.331L16.24,20.356L16.183,20.368L16.125,20.379L16.065,20.389L16.003,20.397L15.942,20.402L15.908,20.404L15.875,20.404L15.842,20.404L15.808,20.402L15.773,20.398L15.738,20.393L15.702,20.385L15.665,20.375L15.627,20.362L15.6,20.35L15.567,20.332L15.565,20.331L15.506,20.337L15.394,20.345L15.283,20.352L15.274,20.352L15.194,20.364L15.007,20.391L14.906,20.405L14.864,20.411L14.822,20.415L14.777,20.418L14.731,20.418L14.682,20.417L14.637,20.415L14.632,20.414L14.618,20.415L14.59,20.417L14.562,20.417L14.536,20.416L14.516,20.415L14.479,20.409L14.471,20.407L14.431,20.395L14.424,20.393L14.421,20.392L14.332,20.394L14.228,20.395L14.021,20.396L13.814,20.395L13.608,20.392L13.45,20.388L13.374,20.4L13.276,20.413L13.178,20.426L13.079,20.437L12.98,20.447L12.909,20.452L12.863,20.455L12.814,20.456L12.763,20.454L12.739,20.451L12.708,20.446L12.699,20.444L12.668,20.435L12.638,20.422L12.632,20.419L12.6,20.4L12.596,20.397L12.4,20.403L12.191,20.408L11.982,20.412L11.773,20.414L11.564,20.416L11.293,20.417L11.078,20.432L10.879,20.447L10.829,20.453L10.695,20.466L10.626,20.472L10.599,20.474L10.458,20.49L10.438,20.493L10.412,20.498L10.373,20.507L10.326,20.515L10.293,20.519L10.258,20.521L10.231,20.52L10.205,20.518L10.189,20.517L10.158,20.511L10.143,20.507L10.106,20.496L10.103,20.494L10.043,20.495L9.967,20.494L9.891,20.492L9.828,20.489L9.788,20.485L9.746,20.481L9.703,20.475L9.684,20.47L9.66,20.464L9.652,20.461L9.625,20.451L9.6,20.439L9.595,20.436L9.567,20.417L9.463,20.42L9.033,20.431L8.603,20.44L8.174,20.448L7.976,20.452L7.78,20.457L7.584,20.464L7.388,20.472L7.387,20.472L7.376,20.474L7.348,20.479L7.315,20.483L7.273,20.486L7.235,20.486L7.199,20.485L7.15,20.482L6.995,20.488L6.601,20.504L6.403,20.511L6.204,20.517L6.005,20.521L5.805,20.524L5.605,20.524L5.404,20.521L5.302,20.519L5.201,20.516L5.099,20.512L4.999,20.507L4.941,20.504L4.884,20.503L4.827,20.503L4.77,20.504L4.712,20.506L4.654,20.508L4.595,20.512L4.536,20.517L4.477,20.522L4.417,20.528L4.296,20.542L4.174,20.558L4.051,20.577L3.927,20.596L3.802,20.616L3.551,20.658L3.424,20.678L3.296,20.696L3.168,20.713L3.042,20.728L3.002,20.732L2.96,20.738L2.862,20.751L2.753,20.765L2.694,20.771L2.634,20.776L2.572,20.78L2.508,20.781L2.444,20.78L2.38,20.775L2.344,20.771L2.311,20.766L2.276,20.76L2.242,20.752L2.207,20.742L2.172,20.73L2.137,20.716L2.11,20.704L2.081,20.688L2.069,20.681L2.049,20.667L2.03,20.652L2.026,20.648L1.997,20.617L1.993,20.613L1.979,20.594L1.966,20.572L1.963,20.568L1.951,20.543L1.941,20.517L1.94,20.513L1.933,20.484L1.929,20.456L1.929,20.451L1.927,20.424L1.929,20.396L1.93,20.391L1.936,20.357L1.94,20.343L1.826,20.343L1.411,20.344L1.344,20.351L1.211,20.368L1.071,20.387L1.027,20.391L0.978,20.391L0.931,20.389L0.886,20.383L0.843,20.376L0.801,20.368L0.788,20.365L0.687,20.397L0.579,20.429L0.471,20.46L0.414,20.475L0.358,20.489L0.302,20.502L0.246,20.514L0.189,20.524L0.135,20.533L0.094,20.537L-0.014,20.538L-0.087,20.538L-0.121,20.537L-0.138,20.536L-0.182,20.529L-0.223,20.515L-0.262,20.495L-0.296,20.47L-0.301,20.47L-0.35,20.474L-0.4,20.477L-0.453,20.476L-0.506,20.472L-0.539,20.467L-0.571,20.461L-0.594,20.454L-0.618,20.446L-0.63,20.441L-0.658,20.428L-0.668,20.423L-0.701,20.402L-0.71,20.396L-0.728,20.381L-0.746,20.365L-0.753,20.358L-0.771,20.337L-0.787,20.315L-0.792,20.306L-0.808,20.278L-0.821,20.248L-0.823,20.241L-0.834,20.201L-0.838,20.16L-0.838,20.157L-0.837,20.118L-0.83,20.079L-0.829,20.077L-0.814,20.034L-0.793,19.994L-0.791,19.992L-0.766,19.959L-0.735,19.93L-0.733,19.928L-0.695,19.902L-0.653,19.883L-0.647,19.881L-0.614,19.871L-0.58,19.866L-0.572,19.865L-0.535,19.864L-0.526,19.865L-0.499,19.867L-0.468,19.871L-0.414,19.882L-0.393,19.88L-0.369,19.876L-0.353,19.873L-0.336,19.868L-0.31,19.861L-0.279,19.852L-0.27,19.836L-0.268,19.833L-0.252,19.811L-0.235,19.792L-0.232,19.789L-0.209,19.768L-0.185,19.75L-0.177,19.745L-0.154,19.732L-0.13,19.721L-0.119,19.717L-0.087,19.706L-0.064,19.7L-0.028,19.694L0.022,19.689L0.067,19.688L0.093,19.689L0.138,19.682L0.191,19.677L0.243,19.677L0.294,19.679L0.319,19.681L0.371,19.677L0.461,19.669L0.544,19.662L0.592,19.65L0.647,19.638L0.7,19.63L0.731,19.626L0.762,19.624L0.796,19.624L0.801,19.625L0.805,19.619L0.825,19.594L0.848,19.572L0.85,19.57L0.882,19.545L0.917,19.526L0.925,19.522L0.957,19.51L1.021,19.49L1.091,19.471L1.161,19.453L1.231,19.437L1.303,19.424L1.375,19.411L1.447,19.401L1.52,19.391L1.593,19.383L1.667,19.376L1.74,19.371L1.814,19.366L1.888,19.362L1.963,19.359L2.109,19.356L2.256,19.355L2.401,19.355L2.544,19.357L2.683,19.36L2.952,19.364L3.078,19.365L3.201,19.364L3.362,19.362L3.524,19.361L3.848,19.36L4.172,19.362L4.495,19.366L4.737,19.37L4.743,19.369L4.765,19.367L4.8,19.366L4.884,19.351L4.941,19.342L4.975,19.338L5.011,19.335L5.083,19.332L5.171,19.332L5.269,19.334L5.371,19.336L5.562,19.343L5.641,19.347L5.697,19.35L5.888,19.365L5.947,19.37L5.987,19.37L6.21,19.376L6.433,19.383L6.655,19.393L6.714,19.396L6.738,19.396L6.897,19.396L7.057,19.395L7.216,19.393L7.375,19.39L7.534,19.386L7.693,19.381L7.852,19.375L8.011,19.368L8.17,19.36L8.331,19.35L8.477,19.342L8.624,19.337L8.77,19.334L8.915,19.334L9.059,19.335L9.202,19.338L9.344,19.342L9.486,19.348L9.767,19.359L10.046,19.37L10.184,19.375L10.322,19.379L10.46,19.381L10.599,19.382L10.782,19.382L10.967,19.381L11.153,19.38L11.34,19.379L11.45,19.379L11.458,19.377L11.506,19.367L11.561,19.358L11.596,19.355L11.631,19.353L11.67,19.354L11.711,19.358L11.741,19.363L11.766,19.369L11.785,19.374L11.815,19.385L11.823,19.388L11.852,19.402L11.879,19.42L11.904,19.44L11.907,19.443L11.937,19.475L11.941,19.481L12.025,19.481L12.255,19.48L12.486,19.475L12.718,19.469L12.95,19.462L13.182,19.453L13.394,19.445L13.538,19.441L13.681,19.439L13.889,19.438L14.121,19.438L14.135,19.438L14.16,19.436L14.195,19.433L14.237,19.431L14.272,19.431L14.298,19.433L14.309,19.434L14.343,19.44L14.351,19.442L14.385,19.452L14.416,19.466L14.422,19.469L14.443,19.482L14.455,19.482L14.628,19.478L14.801,19.472L14.973,19.464L15.146,19.454L15.416,19.435L15.688,19.418L15.826,19.41L15.963,19.404L16.101,19.398L16.238,19.394L16.478,19.388L16.57,19.385L16.711,19.379L16.75,19.378L16.788,19.378L16.85,19.379L16.868,19.378L16.9,19.377L16.926,19.376L16.967,19.379L17.008,19.388L17.011,19.389L17.054,19.406L17.093,19.429L17.125,19.457L17.154,19.45L17.268,19.424L17.327,19.412L17.386,19.401L17.444,19.391L17.503,19.382L17.562,19.374L17.621,19.368L17.68,19.363L17.739,19.36L17.798,19.359L17.857,19.359L17.916,19.362Z" style="fill:rgb(235,235,235);"/>
</svg>
